<?xml version="1.0" encoding="utf-8"?>
<!-- Generator: Adobe Illustrator 18.0.0, SVG Export Plug-In . SVG Version: 6.00 Build 0)  -->
<!DOCTYPE svg PUBLIC "-//W3C//DTD SVG 1.1//EN" "http://www.w3.org/Graphics/SVG/1.1/DTD/svg11.dtd">
<svg version="1.1" id="Layer_1" xmlns="http://www.w3.org/2000/svg" xmlns:xlink="http://www.w3.org/1999/xlink" x="0px" y="0px"
	 viewBox="0 0 792 612" enable-background="new 0 0 792 612" xml:space="preserve">
<path fill="#F89521" d="M348.5,232.2c0.2,1.6,1,3,1.5,4.5c10.7,29.2,21.5,58.5,32.2,87.7c0.5,1.3,0.5,1.3-0.9,1.3
	c-8.1,0-16.2,0-24.2,0.1c-0.9,0-1.2-0.2-1.3-1.1c-0.9-8-1.8-16-2.7-23.9c-0.9-8.1-1.9-16.2-2.8-24.3c-0.6-5.2-1.2-10.5-1.8-15.7
	c-0.7-0.1-0.1,0.6-0.4,0.7c-1.4,12.5-2.9,25-4.3,37.5c-1,8.6-2,17.2-2.9,25.8c-0.1,0.7-0.2,1-1,1c-8.5,0-17,0-25.6-0.1
	c-0.1,0-0.1,0-0.3-0.1c11.4-31.2,22.9-62.3,34.3-93.5C348.3,232.2,348.4,232.2,348.5,232.2z"/>
<path fill="#010101" d="M247.7,315.9c-6.2,9.4-17.9,11.9-26.7,9.6c-6-1.6-10.4-6.4-10.4-13.7c0-5,2.3-8.8,6.4-11.5
	c3.8-2.6,8-3.8,12.5-4.3c5.7-0.6,11.3-0.2,17-0.2c0.9,0,1.2-0.2,1.2-1.2c-0.1-3,0.2-5.9-0.2-8.9c-0.7-5.8-4.1-9.4-9.6-10.7
	c-6.3-1.6-12.4-1.2-18,2.7c-3,2.1-4.9,4.9-5.1,8.7c0,0.5-0.2,0.7-0.7,0.7c-2.1,0.1-2.2,0-2-2c0.3-3.2,1.8-5.7,4.1-7.9
	c3.8-3.6,8.5-5.4,13.7-5.7c3.8-0.2,7.5,0.1,11,1.6c5.7,2.5,8.9,6.8,9.3,13.1c0.4,6.2,0.1,12.4,0.2,18.6c0,4.1,0,8.2,0.1,12.2
	c0,2.5,0.3,4.9,1.1,7.3c0.3,0.8,0,0.9-0.7,0.9c-2.4,0-2.4,0-2.8-2.4C247.8,320.7,247.7,318.4,247.7,315.9z"/>
<path fill="#010101" d="M410,326.3c-4.6,0.1-8.7-0.6-12.5-2.6c-3.8-2.1-6.6-5-7.4-9.4c0-0.2-0.1-0.3-0.1-0.5
	c-0.2-1.8,0.6-2.4,2.3-1.9c0.4,0.1,0.3,0.4,0.4,0.6c0.8,5.9,4.6,8.8,10,10.2c5,1.3,10.1,1.3,15.1-0.5c1.9-0.7,3.5-1.8,4.9-3.1
	c4.1-3.9,3.9-10.2-0.3-14c-3.1-2.8-6.9-4.2-10.9-5.2c-4.1-1-8.3-1.8-12.2-3.6c-3.7-1.7-6.5-4.3-7.3-8.5c-1.1-5.8,1-10.3,6-13.4
	c6.1-3.9,18.6-3.8,24.7,0.9c3.5,2.6,5.4,6.1,5.7,10.5c0.1,0.8-0.2,1.2-1,1.1c-0.4-0.1-0.8,0-1.2,0c-0.4,0-0.6-0.1-0.6-0.6
	c-0.3-5.1-3.3-8.3-7.7-10.2c-5.6-2.4-11.4-2.3-17,0c-5.2,2.2-7.4,6.7-6.1,12c0.6,2.3,2.1,3.8,4,5c3.2,2,6.8,3,10.4,3.8
	c4.3,1,8.5,2,12.4,4.2c6.9,3.8,9.1,12.5,4.7,18.6c-2.6,3.6-6.4,5.3-10.6,6.2C413.7,326.2,411.7,326.4,410,326.3z"/>
<path fill="#010101" d="M459.9,326.3c-4.5,0.1-8.7-0.6-12.5-2.7c-3.8-2.1-6.6-5-7.4-9.5c0-0.1-0.1-0.2-0.1-0.4
	c-0.3-1.8,0.5-2.4,2.3-1.9c0.3,0.1,0.4,0.3,0.4,0.5c0.9,6.6,5.4,9.5,11.3,10.7c4.6,0.9,9.3,0.9,13.8-0.8c1.9-0.7,3.5-1.8,4.9-3.1
	c4.1-3.9,4-10.2-0.3-14c-3.1-2.8-7-4.2-11-5.2c-4.1-1-8.3-1.8-12.2-3.6c-6.8-3.1-9.5-10.2-6.3-16.6c1.4-2.8,3.6-4.8,6.3-6
	c7.4-3.2,14.8-3.1,21.9,0.6c4.5,2.3,6.9,6.2,7.3,11.2c0.1,0.9,0,1.4-1.1,1.2c-0.4-0.1-0.8,0-1.2,0c-0.4,0-0.5-0.1-0.6-0.5
	c-0.3-5.2-3.3-8.4-7.8-10.3c-5.6-2.3-11.3-2.3-16.9,0c-5.2,2.2-7.4,6.7-6.1,12c0.6,2.3,2.2,3.8,4.1,5.1c3.2,1.9,6.7,2.9,10.2,3.8
	c4.3,1,8.5,2,12.4,4.2c6.9,3.8,9.1,12.5,4.7,18.6c-2.6,3.6-6.3,5.3-10.6,6.2C463.6,326.2,461.7,326.4,459.9,326.3z"/>
<path fill="#010101" d="M530.3,326.3c-4.6,0.1-8.7-0.6-12.5-2.7c-3.8-2.1-6.6-5-7.4-9.5c0-0.1-0.1-0.2-0.1-0.4
	c-0.3-1.8,0.5-2.4,2.3-1.9c0.3,0.1,0.4,0.3,0.4,0.5c0.9,6.6,5.4,9.5,11.3,10.7c4.6,0.9,9.3,0.9,13.8-0.8c1.9-0.7,3.5-1.8,4.9-3.1
	c4.1-3.9,4-10.2-0.3-14c-3.1-2.8-7-4.2-11-5.2c-4.1-1-8.3-1.8-12.2-3.6c-6.8-3.1-9.5-10.2-6.3-16.6c1.4-2.8,3.6-4.8,6.3-6
	c7.4-3.2,14.8-3.1,21.9,0.6c4.5,2.3,6.9,6.2,7.3,11.2c0.1,0.9,0,1.4-1.1,1.2c-0.4-0.1-0.8,0-1.2,0c-0.4,0-0.5-0.1-0.6-0.5
	c-0.3-5.1-3.3-8.3-7.7-10.2c-5.6-2.4-11.4-2.4-17.1,0c-5.1,2.2-7.3,6.7-6,12c0.6,2.3,2.2,3.8,4.1,5.1c3.2,1.9,6.7,2.9,10.2,3.8
	c4.3,1,8.5,2,12.4,4.2c6.9,3.8,9.1,12.5,4.7,18.6c-2.6,3.6-6.3,5.3-10.6,6.2C534,326.2,532,326.4,530.3,326.3z"/>
<path fill="#020202" d="M569,295.3c0,5.9,0,11.8,0,17.8c0,1.8,0.2,3.6,0.7,5.3c1,3.5,3.2,5.1,6.8,5.2c1.6,0,3.1-0.1,4.7-0.3
	c0.7-0.1,1.1,0,1.2,0.8c0.3,2.1,0.6,1.8-1.4,2.1c-2.5,0.3-4.9,0.4-7.4-0.1c-3.8-0.8-6.1-3.5-6.9-7.9c-0.3-1.9-0.5-3.7-0.5-5.6
	c0-12,0-24.1,0-36.1c0-1-0.2-1.3-1.2-1.2c-2.6,0.1-5.1,0-7.7,0.1c-1.3,0-0.9-0.8-0.9-1.4c0-0.6-0.2-1.3,0.9-1.3c2.6,0.1,5.3,0,7.9,0
	c0.8,0,1-0.2,1-1c0-4,0-8,0-12c0-1,0.3-1.3,1.3-1.2c0.2,0,0.5,0,0.7,0c0.8-0.1,0.9,0.2,0.9,0.9c0,4,0,8.1,0,12.1
	c0,1,0.3,1.2,1.2,1.1c3.3,0,6.6,0,9.8-0.1c1.1,0,1.1,0.5,1,1.2c-0.1,0.6,0.4,1.5-1,1.5c-3.4-0.1-6.7,0-10.1,0c-0.8,0-1,0.2-1,1
	C569,282.5,569,288.9,569,295.3z"/>
<path fill="#010101" d="M290.7,282.6c0.5-0.1,0.5-0.6,0.6-0.9c4-7.9,10.3-10.7,18.4-10.1c0.2,0,0.4,0,0.6,0.1c0.4,0.2,1.2,0,1.3,0.5
	c0.1,0.6,0,1.4-0.2,2c-0.1,0.5-0.6,0.2-0.9,0.2c-2.6-0.2-5.3-0.3-7.8,0.6c-5.6,1.9-8.9,6-10.8,11.3c-0.8,2.1-1.2,4.3-1.2,6.7
	c0.1,10.4,0,20.8,0,31.2c0,0.4,0.3,1-0.2,1c-0.8,0.1-1.6,0.2-2.3-0.1c-0.3-0.1-0.1-0.7-0.1-1c0-11.4,0-22.7,0-34.1
	c0-5.5,0.1-11,0-16.6c0-1.4,0.8-1,1.5-1c0.8-0.1,1.3,0,1.2,1.1C290.6,276.6,290.7,279.5,290.7,282.6z"/>
<path fill="#050505" d="M267.9,298.9c0-8.4,0-16.7,0-25.1c0-0.4-0.3-1.1,0.3-1.3c0.8-0.2,1.6-0.1,2.4,0c0.2,0,0.1,0.4,0.1,0.6
	c0,1,0,1.9,0,2.9c0,16,0,31.9,0,47.9c0,0.4,0.3,1.1-0.3,1.3c-0.8,0.2-1.6,0.1-2.4,0c-0.3-0.1-0.2-0.6-0.2-1c0-7.6,0-15.2,0-22.8
	C267.9,300.6,267.9,299.8,267.9,298.9z"/>
<path fill="#050505" d="M493.3,298.8c0-8.3,0-16.6,0-25c0-0.4-0.3-1.1,0.3-1.3c0.8-0.2,1.6-0.1,2.4,0c0.2,0,0.1,0.4,0.1,0.6
	c0,1.1,0,2.2,0,3.4c0,15.8,0,31.6,0,47.4c0,0.4,0.3,1.1-0.3,1.3c-0.8,0.2-1.6,0.1-2.4,0c-0.3-0.1-0.2-0.6-0.2-1c0-7.7,0-15.4,0-23.2
	C493.3,300.3,493.3,299.5,493.3,298.8z"/>
<path fill="#030303" d="M269.3,258.6c-1.6,0-2.8-1.2-2.7-2.8c0-1.6,1.2-2.7,2.8-2.7c1.6,0,2.8,1.2,2.8,2.8
	C272.1,257.4,270.9,258.6,269.3,258.6z"/>
<path fill="#030303" d="M494.7,253.1c1.6,0,2.8,1.2,2.8,2.8c0,1.6-1.2,2.8-2.8,2.8c-1.6,0-2.8-1.1-2.8-2.7
	C491.9,254.2,493.1,253.1,494.7,253.1z"/>
<path fill="#FFDEBC" d="M348,261.5c-0.1-0.5,0-0.9,0.2-1.4c0.3,0.2,0.2,0.4,0.2,0.7C348.3,261,348.2,261.2,348,261.5z"/>
<path fill="#FFFFFF" d="M240.2,298.4c2.2,0,4.4,0,6.6,0c0.7,0,1,0.1,1,0.9c-0.1,3.7,0,7.4,0,11c0,0.5-0.1,0.9-0.4,1.4
	c-3.3,6.5-8.5,10.3-15.6,11.5c-3.5,0.6-6.9,0.7-10.3-0.5c-5.1-1.8-8.3-6.1-8.1-11.2c0.1-3.5,1.9-6.2,4.6-8.3
	c3.3-2.6,7.2-3.7,11.4-4.3C232.9,298.4,236.5,298.4,240.2,298.4z"/>
</svg>
